<svg width="100%" height="100%" viewBox="0 0 1920 1080" fill="none" xmlns="http://www.w3.org/2000/svg">
<rect width="1920" height="1080" fill="white"/>
<g clip-path="url(#clip0)">
<path opacity="0.1" d="M1613.64 686.435C1582.35 751.011 1518.82 794.191 1452.98 822.668C1364.35 861.018 1266.74 876.228 1170.47 869.795C1153.6 868.672 1136.78 866.877 1120.01 864.411C1061.77 855.91 1004.99 839.368 951.297 815.257C935.8 808.275 920.617 800.652 905.748 792.389C880.914 778.617 857.118 763.047 834.552 745.804C828.876 741.468 823.279 737.022 817.76 732.467C813.933 729.309 810.141 726.081 806.29 722.947C798.165 716.337 789.804 710.058 780.478 705.357C777.663 703.937 774.779 702.663 771.834 701.54C742.3 690.3 708.245 694.541 677.498 703.307C654.111 709.975 631.314 719.106 607.95 725.622C597.558 728.608 586.969 730.86 576.262 732.361C552.355 735.388 528.078 733.255 505.065 726.105L503.099 725.492C499.801 724.455 496.532 723.32 493.289 722.087L491.323 721.333C488.183 720.123 485.109 718.823 482.102 717.433L480.136 716.538C476.996 715.077 473.922 713.533 470.915 711.907C469.832 711.342 468.76 710.729 467.701 710.152C450.593 700.593 435.043 688.479 421.587 674.229C421.198 673.841 420.833 673.44 420.409 673.051C418.537 671.025 416.7 668.963 414.921 666.854C414.262 666.076 413.603 665.299 412.955 664.498C410.843 661.921 408.806 659.286 406.843 656.592C406.549 656.203 406.266 655.803 405.984 655.414C397.943 644.284 391.276 632.222 386.13 619.491C385.965 619.102 385.812 618.702 385.67 618.313C384.1 614.268 382.668 610.156 381.372 605.977C380.842 604.234 380.336 602.443 379.888 600.699C379.735 600.181 379.594 599.651 379.465 599.132C372.964 573.53 372.222 546.915 372.222 520.454C372.222 517.367 372.222 514.284 372.222 511.205C372.411 468.402 373.07 424.868 379.382 382.654C379.382 382.359 379.465 382.065 379.512 381.782C381.624 367.571 384.498 353.483 388.12 339.58C391.911 324.991 396.755 310.698 402.616 296.812C417.135 262.645 438.249 231.553 461.695 202.734C520.751 130.217 598.2 69.341 688.85 46.555C786.53 22.0136 895.091 45.53 973.883 108.292C997.906 127.425 1019.49 150.082 1046.47 164.75C1070.02 177.521 1097.59 182.811 1122.81 172.761C1143.65 164.455 1157.22 160.332 1180.63 161.592C1229.1 164.335 1276.87 174.348 1322.36 191.294C1324.2 191.966 1326.04 192.661 1327.86 193.356C1446.46 238.751 1548.4 328.941 1601.39 444.838C1602.8 447.901 1604.16 450.988 1605.48 454.099C1637.07 527.935 1648.5 614.472 1613.64 686.435Z" fill="#1565C0"/>
<path opacity="0.1" d="M427.663 912.375C485.077 912.375 531.62 904.895 531.62 895.668C531.62 886.441 485.077 878.961 427.663 878.961C370.249 878.961 323.706 886.441 323.706 895.668C323.706 904.895 370.249 912.375 427.663 912.375Z" fill="#1565C0"/>
<path d="M1527.15 163.949H437.472C429.349 163.949 422.764 170.537 422.764 178.664V783.482C422.764 791.609 429.349 798.197 437.472 798.197H1527.15C1535.27 798.197 1541.85 791.609 1541.85 783.482V178.664C1541.85 170.537 1535.27 163.949 1527.15 163.949Z" fill="url(#paint0_linear)"/>
<path d="M1525.5 172.867H439.25C431.127 172.867 424.542 179.456 424.542 187.583V781.373C424.542 789.5 431.127 796.088 439.25 796.088H1525.5C1533.62 796.088 1540.2 789.5 1540.2 781.373V187.583C1540.2 179.456 1533.62 172.867 1525.5 172.867Z" fill="white"/>
<path d="M1525.5 172.867H439.25C431.127 172.867 424.542 179.456 424.542 187.583V781.373C424.542 789.5 431.127 796.088 439.25 796.088H1525.5C1533.62 796.088 1540.2 789.5 1540.2 781.373V187.583C1540.2 179.456 1533.62 172.867 1525.5 172.867Z" fill="white"/>
<path opacity="0.04" d="M1525.5 172.867H439.25C431.127 172.867 424.542 179.456 424.542 187.583V781.373C424.542 789.5 431.127 796.088 439.25 796.088H1525.5C1533.62 796.088 1540.2 789.5 1540.2 781.373V187.583C1540.2 179.456 1533.62 172.867 1525.5 172.867Z" fill="white"/>
<path d="M1534.54 165.716H430.206C428.704 165.716 427.263 166.313 426.201 167.376C425.139 168.439 424.542 169.88 424.542 171.383V195.335H1540.16V171.383C1540.16 169.888 1539.57 168.454 1538.52 167.392C1537.46 166.331 1536.03 165.728 1534.54 165.716Z" fill="#5A5773"/>
<path d="M446.822 188.184C451.049 188.184 454.476 184.755 454.476 180.526C454.476 176.296 451.049 172.867 446.822 172.867C442.595 172.867 439.168 176.296 439.168 180.526C439.168 184.755 442.595 188.184 446.822 188.184Z" fill="white"/>
<path d="M467.43 188.184C471.657 188.184 475.084 184.755 475.084 180.526C475.084 176.296 471.657 172.867 467.43 172.867C463.202 172.867 459.776 176.296 459.776 180.526C459.776 184.755 463.202 188.184 467.43 188.184Z" fill="white"/>
<path d="M488.037 188.184C492.265 188.184 495.692 184.755 495.692 180.526C495.692 176.296 492.265 172.867 488.037 172.867C483.81 172.867 480.383 176.296 480.383 180.526C480.383 184.755 483.81 188.184 488.037 188.184Z" fill="white"/>
<path opacity="0.2" d="M815.828 251.04H516.429V276.465H815.828V251.04Z" fill="#1565C0"/>
<path opacity="0.1" d="M1448.32 352.987H516.429V744.095H1448.32V352.987Z" fill="#5A5773"/>
<path opacity="0.1" d="M1062.06 378.495H1046.1V347.485C1046.1 312.493 1018.22 283.404 983.245 282.874C974.811 282.785 966.444 284.367 958.624 287.529C950.805 290.691 943.688 295.369 937.684 301.295C931.68 307.221 926.907 314.278 923.641 322.058C920.375 329.837 918.681 338.187 918.655 346.625V378.495H902.734C895.698 378.517 888.956 381.323 883.981 386.301C879.006 391.278 876.201 398.023 876.179 405.063V532.565C876.201 539.605 879.006 546.35 883.981 551.328C888.956 556.305 895.698 559.111 902.734 559.133H1062.06C1069.1 559.111 1075.84 556.305 1080.81 551.327C1085.78 546.349 1088.58 539.604 1088.6 532.565V405.063C1088.58 398.024 1085.78 391.279 1080.81 386.301C1075.84 381.323 1069.1 378.517 1062.06 378.495ZM991.7 461.38V507.046C991.715 509.464 990.812 511.797 989.172 513.574C987.532 515.35 985.279 516.436 982.868 516.613C981.61 516.672 980.352 516.475 979.172 516.034C977.992 515.592 976.914 514.916 976.002 514.046C975.091 513.176 974.365 512.13 973.87 510.971C973.374 509.813 973.118 508.566 973.118 507.305V461.356C968.81 459.254 965.341 455.754 963.278 451.425C961.214 447.097 960.677 442.197 961.756 437.525C962.834 432.852 965.463 428.683 969.214 425.698C972.965 422.713 977.616 421.088 982.409 421.088C987.202 421.088 991.853 422.713 995.604 425.698C999.355 428.683 1001.98 432.852 1003.06 437.525C1004.14 442.197 1003.6 447.097 1001.54 451.425C999.477 455.754 996.008 459.254 991.7 461.356V461.38ZM1027.55 378.495H937.237V346.625C937.237 334.648 941.992 323.162 950.457 314.693C958.922 306.224 970.403 301.466 982.374 301.466C994.345 301.466 1005.83 306.224 1014.29 314.693C1022.75 323.162 1027.51 334.648 1027.51 346.625L1027.55 378.495Z" fill="black"/>
<path d="M1062.06 376.139H1046.1V345.129C1046.1 310.137 1018.22 281.048 983.245 280.518C974.811 280.429 966.444 282.011 958.624 285.173C950.805 288.334 943.688 293.013 937.684 298.939C931.68 304.865 926.907 311.921 923.641 319.701C920.375 327.481 918.681 335.831 918.655 344.269V376.139H902.734C895.698 376.16 888.956 378.966 883.981 383.944C879.006 388.922 876.201 395.667 876.179 402.707V530.209C876.201 537.249 879.006 543.994 883.981 548.971C888.956 553.949 895.698 556.755 902.734 556.777H1062.06C1069.1 556.755 1075.84 553.949 1080.81 548.971C1085.78 543.993 1088.58 537.247 1088.6 530.209V402.707C1088.58 395.668 1085.78 388.923 1080.81 383.945C1075.84 378.967 1069.1 376.16 1062.06 376.139V376.139ZM991.7 459.023V504.69C991.715 507.108 990.812 509.441 989.172 511.218C987.532 512.994 985.279 514.08 982.868 514.256C981.61 514.315 980.352 514.118 979.172 513.677C977.992 513.236 976.914 512.56 976.002 511.69C975.091 510.82 974.365 509.774 973.87 508.615C973.374 507.456 973.118 506.209 973.118 504.949V459C968.81 456.898 965.341 453.397 963.278 449.069C961.214 444.741 960.677 439.841 961.756 435.168C962.834 430.496 965.463 426.327 969.214 423.342C972.965 420.357 977.616 418.731 982.409 418.731C987.202 418.731 991.853 420.357 995.604 423.342C999.355 426.327 1001.98 430.496 1003.06 435.168C1004.14 439.841 1003.6 444.741 1001.54 449.069C999.477 453.397 996.008 456.898 991.7 459V459.023ZM1027.55 376.139H937.237V344.269C937.237 332.292 941.992 320.805 950.457 312.336C958.922 303.867 970.403 299.109 982.374 299.109C994.345 299.109 1005.83 303.867 1014.29 312.336C1022.75 320.805 1027.51 332.292 1027.51 344.269L1027.55 376.139Z" fill="#1565C0"/>
<path d="M431.007 575.651H424.319V726.34H431.007V575.651Z" fill="#535461"/>
<path d="M473.047 725.881L472.623 732.667L472.034 742.246L471.787 746.24L471.198 755.83L470.939 759.824L470.35 769.403L463.603 878.349C463.315 883.037 461.25 887.44 457.83 890.658C454.41 893.876 449.892 895.668 445.197 895.668H410.129C405.435 895.668 400.918 893.875 397.5 890.657C394.082 887.438 392.02 883.036 391.735 878.349L384.952 769.403L384.363 759.824L384.116 755.83L383.539 746.216L383.292 742.222L382.703 732.643L382.279 725.857C382.198 724.555 382.386 723.25 382.829 722.022C383.272 720.795 383.961 719.671 384.855 718.721C385.749 717.77 386.828 717.013 388.025 716.496C389.222 715.979 390.513 715.712 391.817 715.713H463.52C464.826 715.712 466.118 715.979 467.317 716.498C468.515 717.017 469.595 717.776 470.488 718.73C471.381 719.683 472.069 720.809 472.509 722.039C472.949 723.27 473.132 724.577 473.047 725.881V725.881Z" fill="#3F3D56"/>
<path d="M472.623 732.667L472.034 742.246H383.28L382.691 732.667H472.623Z" fill="#9D9CB5"/>
<path d="M471.787 746.24L471.198 755.83H384.128L383.527 746.24H471.787Z" fill="#9D9CB5"/>
<path d="M470.939 759.824L470.35 769.403H384.976L384.375 759.824H470.939Z" fill="#9D9CB5"/>
<path d="M372.481 632.133C411.436 660.327 427.663 704.438 427.663 704.438C427.663 704.438 380.713 702.824 341.7 674.63C302.686 646.436 286.518 602.325 286.518 602.325C286.518 602.325 333.515 603.939 372.481 632.133Z" fill="#1565C0"/>
<path d="M286.577 602.325C286.577 602.325 335.305 629.423 350.932 651.809C366.558 674.194 427.663 704.45 427.663 704.45" stroke="#535461" stroke-width="2" stroke-miterlimit="10"/>
<path d="M397.623 575.38C418.819 590.697 427.663 614.731 427.663 614.731C427.663 614.731 402.109 613.86 380.901 598.508C359.693 583.156 350.873 559.157 350.873 559.157C350.873 559.157 376.426 559.97 397.623 575.38Z" fill="#1565C0"/>
<path d="M350.873 559.098C350.873 559.098 377.392 573.825 385.894 586.019C394.396 598.213 427.663 614.672 427.663 614.672" stroke="#535461" stroke-width="2" stroke-miterlimit="10"/>
<path d="M458.48 613.459C434.116 640.239 428.97 675.231 428.97 675.231C428.97 675.231 463.308 666.807 487.661 640.027C512.013 613.247 517.171 578.243 517.171 578.243C517.171 578.243 482.832 586.667 458.48 613.459Z" fill="#1565C0"/>
<path d="M517.171 578.243C517.171 578.243 485.447 605.695 477.38 624.616C469.314 643.538 428.97 675.278 428.97 675.278" stroke="#535461" stroke-width="2" stroke-miterlimit="10"/>
</g>
<path d="M896.368 699H870.736L873.904 680.712H833.008L838.912 647.448L879.664 598.2H907.024L865.408 651.624L863.968 659.976H879.376L882.976 640.248H906.736L903.136 659.976H917.392L913.792 680.712H899.536L896.368 699ZM980.186 594.312C1002.84 594.312 1014.17 604.488 1014.17 624.84C1014.17 628.584 1013.79 632.712 1013.02 637.224L1009.56 657.384C1007.07 672.072 1001.88 683.016 994.01 690.216C986.234 697.416 975.386 701.016 961.466 701.016C947.642 701.016 938.09 697.464 932.81 690.36C929.258 685.464 927.482 678.84 927.482 670.488C927.482 666.456 927.866 662.088 928.634 657.384L932.09 637.224C937.082 608.616 953.114 594.312 980.186 594.312ZM953.69 666.024C953.69 674.472 957.578 678.696 965.354 678.696C970.154 678.696 974.042 677.112 977.018 673.944C980.09 670.776 982.346 665.064 983.786 656.808L987.098 637.8C987.674 634.632 987.962 631.896 987.962 629.592C987.962 620.952 984.122 616.632 976.442 616.632C966.65 616.824 960.506 623.88 958.01 637.8L954.554 656.808C953.978 660.36 953.69 663.432 953.69 666.024ZM1054.08 630.744C1054.08 632.184 1054.32 633.624 1054.8 635.064H1029.31C1028.83 633.336 1028.59 631.08 1028.59 628.296C1028.59 617.832 1032.38 609.576 1039.97 603.528C1047.55 597.384 1058.45 594.312 1072.65 594.312C1083.98 594.312 1092.57 596.712 1098.43 601.512C1104.29 606.216 1107.21 612.744 1107.21 621.096C1107.21 627.912 1104.96 634.344 1100.45 640.392C1095.93 646.44 1090.75 649.464 1084.89 649.464V649.896C1089.41 649.896 1093.01 651.48 1095.69 654.648C1098.38 657.816 1099.73 661.944 1099.73 667.032C1099.73 689.688 1084.65 701.016 1054.51 701.016C1041.93 701.016 1032.67 698.136 1026.72 692.376C1022.3 688.152 1020.09 682.296 1020.09 674.808C1020.09 672.12 1020.38 669.24 1020.96 666.168H1046.88C1046.69 667.224 1046.59 668.232 1046.59 669.192C1046.59 675.528 1050.72 678.696 1058.97 678.696C1063.29 678.696 1066.89 677.448 1069.77 674.952C1072.65 672.456 1074.09 669.384 1074.09 665.736C1074.09 660.168 1070.45 657.384 1063.15 657.384H1048.61L1051.49 641.688H1063.01C1068 641.592 1072.17 640.056 1075.53 637.08C1078.99 634.008 1080.72 630.696 1080.72 627.144C1080.72 623.592 1079.61 620.952 1077.41 619.224C1075.29 617.496 1072.13 616.632 1067.9 616.632C1063.68 616.632 1060.32 617.928 1057.82 620.52C1055.33 623.016 1054.08 626.424 1054.08 630.744Z" fill="#535461"/>
<path d="M903.368 699H877.736L880.904 680.712H840.008L845.912 647.448L886.664 598.2H914.024L872.408 651.624L870.968 659.976H886.376L889.976 640.248H913.736L910.136 659.976H924.392L920.792 680.712H906.536L903.368 699ZM987.186 594.312C1009.84 594.312 1021.17 604.488 1021.17 624.84C1021.17 628.584 1020.79 632.712 1020.02 637.224L1016.56 657.384C1014.07 672.072 1008.88 683.016 1001.01 690.216C993.234 697.416 982.386 701.016 968.466 701.016C954.642 701.016 945.09 697.464 939.81 690.36C936.258 685.464 934.482 678.84 934.482 670.488C934.482 666.456 934.866 662.088 935.634 657.384L939.09 637.224C944.082 608.616 960.114 594.312 987.186 594.312ZM960.69 666.024C960.69 674.472 964.578 678.696 972.354 678.696C977.154 678.696 981.042 677.112 984.018 673.944C987.09 670.776 989.346 665.064 990.786 656.808L994.098 637.8C994.674 634.632 994.962 631.896 994.962 629.592C994.962 620.952 991.122 616.632 983.442 616.632C973.65 616.824 967.506 623.88 965.01 637.8L961.554 656.808C960.978 660.36 960.69 663.432 960.69 666.024ZM1061.08 630.744C1061.08 632.184 1061.32 633.624 1061.8 635.064H1036.31C1035.83 633.336 1035.59 631.08 1035.59 628.296C1035.59 617.832 1039.38 609.576 1046.97 603.528C1054.55 597.384 1065.45 594.312 1079.65 594.312C1090.98 594.312 1099.57 596.712 1105.43 601.512C1111.29 606.216 1114.21 612.744 1114.21 621.096C1114.21 627.912 1111.96 634.344 1107.45 640.392C1102.93 646.44 1097.75 649.464 1091.89 649.464V649.896C1096.41 649.896 1100.01 651.48 1102.69 654.648C1105.38 657.816 1106.73 661.944 1106.73 667.032C1106.73 689.688 1091.65 701.016 1061.51 701.016C1048.93 701.016 1039.67 698.136 1033.72 692.376C1029.3 688.152 1027.09 682.296 1027.09 674.808C1027.09 672.12 1027.38 669.24 1027.96 666.168H1053.88C1053.69 667.224 1053.59 668.232 1053.59 669.192C1053.59 675.528 1057.72 678.696 1065.97 678.696C1070.29 678.696 1073.89 677.448 1076.77 674.952C1079.65 672.456 1081.09 669.384 1081.09 665.736C1081.09 660.168 1077.45 657.384 1070.15 657.384H1055.61L1058.49 641.688H1070.01C1075 641.592 1079.17 640.056 1082.53 637.08C1085.99 634.008 1087.72 630.696 1087.72 627.144C1087.72 623.592 1086.61 620.952 1084.41 619.224C1082.29 617.496 1079.13 616.632 1074.9 616.632C1070.68 616.632 1067.32 617.928 1064.82 620.52C1062.33 623.016 1061.08 626.424 1061.08 630.744Z" fill="#1565C0"/>
<g filter="url(#filter0_d)">
<path d="M693.768 826.712V861.128H724.872V871.64H693.768V917H681.24V816.2H728.472V826.712H693.768ZM802.489 892.52C802.489 900.68 800.233 906.824 795.721 910.952C791.305 914.984 784.921 917 776.569 917H771.673C763.321 917 756.889 914.984 752.377 910.952C747.961 906.824 745.753 900.68 745.753 892.52V840.68C745.753 832.52 747.961 826.424 752.377 822.392C756.889 818.264 763.321 816.2 771.673 816.2H776.569C784.921 816.2 791.305 818.264 795.721 822.392C800.233 826.424 802.489 832.52 802.489 840.68V892.52ZM789.961 837.944C789.961 834.968 788.857 832.424 786.649 830.312C784.441 828.2 781.561 827.144 778.009 827.144H770.233C766.681 827.144 763.801 828.2 761.593 830.312C759.385 832.424 758.281 834.968 758.281 837.944V895.256C758.281 898.232 759.385 900.776 761.593 902.888C763.801 905 766.681 906.056 770.233 906.056H778.009C781.561 906.056 784.441 905 786.649 902.888C788.857 900.776 789.961 898.232 789.961 895.256V837.944ZM850.865 875.24H838.049V917H825.521V816.2H851.297C859.457 816.2 865.601 818.024 869.729 821.672C873.953 825.224 876.065 830.888 876.065 838.664V852.488C876.065 863.336 871.745 870.104 863.105 872.792L883.121 917H869.441L850.865 875.24ZM863.537 837.368C863.537 833.72 862.673 831.08 860.945 829.448C859.313 827.816 856.673 827 853.025 827H838.049V864.44H853.025C856.673 864.44 859.313 863.624 860.945 861.992C862.673 860.264 863.537 857.576 863.537 853.928V837.368ZM952.174 894.248C952.174 902.504 950.254 908.36 946.414 911.816C942.67 915.272 936.43 917 927.694 917H900.334V816.2H925.966C934.51 816.2 940.75 817.928 944.686 821.384C948.718 824.84 950.734 830.6 950.734 838.664V846.872C950.734 854.264 948.094 859.832 942.814 863.576C949.054 867.032 952.174 872.936 952.174 881.288V894.248ZM938.206 837.368C938.206 833.72 937.342 831.08 935.614 829.448C933.982 827.816 931.342 827 927.694 827H912.862V858.824H927.694C930.67 858.824 933.166 857.864 935.182 855.944C937.198 854.024 938.206 851.48 938.206 848.312V837.368ZM939.646 879.992C939.646 876.824 938.686 874.328 936.766 872.504C934.846 870.584 932.302 869.624 929.134 869.624H912.862V906.2H928.99C932.638 906.2 935.326 905.384 937.054 903.752C938.782 902.024 939.646 899.336 939.646 895.688V879.992ZM969.386 917V906.488H979.466V826.712H969.386V816.2H1002.07V826.712H991.994V906.488H1002.07V917H969.386ZM1073.55 894.248C1073.55 902.504 1071.63 908.36 1067.79 911.816C1064.05 915.272 1057.81 917 1049.07 917H1020.85V816.2H1047.35C1055.99 816.2 1062.51 817.976 1066.93 821.528C1071.35 824.984 1073.55 830.696 1073.55 838.664V894.248ZM1061.03 837.368C1061.03 834.2 1060.07 831.704 1058.15 829.88C1056.23 827.96 1053.68 827 1050.51 827H1033.38V906.2H1050.37C1054.02 906.2 1056.71 905.384 1058.43 903.752C1060.16 902.024 1061.03 899.336 1061.03 895.688V837.368ZM1149.35 894.248C1149.35 902.504 1147.43 908.36 1143.59 911.816C1139.85 915.272 1133.61 917 1124.87 917H1096.65V816.2H1123.14C1131.78 816.2 1138.31 817.976 1142.73 821.528C1147.14 824.984 1149.35 830.696 1149.35 838.664V894.248ZM1136.82 837.368C1136.82 834.2 1135.86 831.704 1133.94 829.88C1132.02 827.96 1129.48 827 1126.31 827H1109.17V906.2H1126.17C1129.81 906.2 1132.5 905.384 1134.23 903.752C1135.96 902.024 1136.82 899.336 1136.82 895.688V837.368ZM1172.44 917V816.2H1219.68V826.712H1184.97V859.688H1216.08V870.2H1184.97V906.488H1219.68V917H1172.44ZM1274.2 917L1252.17 826.856V917H1240.51V816.2H1260.95L1283.13 906.344V816.2H1294.79V917H1274.2Z" fill="#1565C0"/>
</g>
<defs>
<filter id="filter0_d" x="670.24" y="816.2" width="624.554" height="107.8" filterUnits="userSpaceOnUse" color-interpolation-filters="sRGB">
<feFlood flood-opacity="0" result="BackgroundImageFix"/>
<feColorMatrix in="SourceAlpha" type="matrix" values="0 0 0 0 0 0 0 0 0 0 0 0 0 0 0 0 0 0 127 0"/>
<feOffset dx="-8" dy="4"/>
<feGaussianBlur stdDeviation="1.5"/>
<feColorMatrix type="matrix" values="0 0 0 0 0 0 0 0 0 0 0 0 0 0 0 0 0 0 0.25 0"/>
<feBlend mode="normal" in2="BackgroundImageFix" result="effect1_dropShadow"/>
<feBlend mode="normal" in="SourceGraphic" in2="effect1_dropShadow" result="shape"/>
</filter>
<linearGradient id="paint0_linear" x1="982.303" y1="798.197" x2="982.303" y2="163.949" gradientUnits="userSpaceOnUse">
<stop stop-color="#808080" stop-opacity="0.25"/>
<stop offset="0.54" stop-color="#808080" stop-opacity="0.12"/>
<stop offset="1" stop-color="#808080" stop-opacity="0.1"/>
</linearGradient>
<clipPath id="clip0">
<rect width="1349" height="966" fill="white" transform="translate(286 37)"/>
</clipPath>
</defs>
</svg>
