<svg width="100%" height="100%" viewBox="0 0 1920 1080" fill="none" xmlns="http://www.w3.org/2000/svg">
<rect width="1920" height="1080" fill="white"/>
<path d="M448.592 885.069C448.592 879.829 430.262 875.22 402.53 872.553C424.501 871.996 440.786 869.969 440.786 867.554C440.786 864.709 418.192 862.402 390.322 862.402C362.451 862.402 339.858 864.709 339.858 867.554C339.858 868.493 342.319 869.373 346.616 870.131C290.793 870.17 245.621 876.843 245.621 885.069C245.621 889.351 257.86 893.211 277.464 895.935C265.556 896.878 257.889 898.352 257.889 900.009C257.889 902.854 280.482 905.161 308.353 905.161C336.223 905.161 358.817 902.854 358.817 900.009C358.816 899.975 358.811 899.942 358.804 899.91C409.342 899.056 448.592 892.738 448.592 885.069Z" fill="#F2F2F2"/>
<path opacity="0.1" d="M368.423 688.109C367.076 688.109 365.746 688.122 364.432 688.148C385.861 688.548 402.632 692.139 402.632 696.512C402.632 700.885 385.861 704.475 364.432 704.876C365.746 704.901 367.077 704.914 368.423 704.915C391.724 704.915 410.614 701.153 410.614 696.512C410.614 691.871 391.724 688.109 368.423 688.109Z" fill="black"/>
<path opacity="0.1" d="M335.355 692.385C336.701 692.385 338.032 692.398 339.346 692.423C317.917 692.824 301.146 696.415 301.146 700.788C301.146 705.16 317.917 708.751 339.346 709.152C338.031 709.177 336.701 709.189 335.355 709.191C312.053 709.191 293.164 705.428 293.164 700.788C293.164 696.147 312.053 692.385 335.355 692.385Z" fill="black"/>
<path d="M312.128 884.097C312.128 884.097 316.699 860.098 348.699 868.098C380.699 876.097 385.271 884.097 385.271 884.097H312.128Z" fill="#3F3D56"/>
<path d="M316.631 842.82C324.252 860.487 340.428 868.071 340.428 868.071C340.428 868.071 344.247 847.011 336.625 829.344C329.004 811.677 312.828 804.093 312.828 804.093C312.828 804.093 309.009 825.153 316.631 842.82Z" fill="#3F3D56"/>
<path d="M321.869 837.008C335.63 847.355 340.929 867.908 340.929 867.908C340.929 867.908 323.919 871.685 310.159 861.337C296.399 850.99 291.099 830.437 291.099 830.437C291.099 830.437 308.109 826.66 321.869 837.008Z" fill="#1565C0"/>
<path d="M525.412 558.965C525.412 700.225 458.226 749.548 375.349 749.548C292.471 749.548 225.286 700.225 225.286 558.965C225.286 417.705 375.349 238 375.349 238C375.349 238 525.412 417.705 525.412 558.965Z" fill="#F2F2F2"/>
<path d="M369.883 727.94L371.419 609.718L435.379 463.46L371.66 591.172L372.35 538.014L416.433 432.199L372.533 523.947L373.777 428.342L420.979 344.099L373.971 413.307L374.748 238L369.869 470.075L370.269 460.502L322.278 368.682L369.501 478.88L365.029 585.656L364.895 582.822L309.569 486.195L364.728 592.833L364.168 606.187L364.069 606.388L364.115 607.484L352.769 878.382H367.927L369.746 738.458L424.769 632.081L369.883 727.94Z" fill="#3F3D56"/>
<path d="M626.657 826.347C626.657 821.107 608.327 816.498 580.594 813.831C602.566 813.274 618.851 811.247 618.851 808.832C618.851 805.987 596.257 803.68 568.387 803.68C540.516 803.68 517.922 805.987 517.922 808.832C517.922 809.77 520.383 810.65 524.681 811.408C468.858 811.447 423.686 818.12 423.686 826.347C423.686 830.629 435.924 834.489 455.529 837.213C443.62 838.155 435.953 839.629 435.953 841.287C435.953 844.132 458.547 846.438 486.417 846.438C514.288 846.438 536.881 844.132 536.881 841.287C536.88 841.253 536.876 841.22 536.869 841.187C587.407 840.333 626.657 834.015 626.657 826.347Z" fill="#F2F2F2"/>
<path d="M558.086 877.108C558.086 873.606 547.93 870.527 532.564 868.745C544.738 868.372 553.76 867.018 553.76 865.404C553.76 863.503 541.242 861.962 525.801 861.962C510.359 861.962 497.841 863.503 497.841 865.404C497.841 866.031 499.204 866.619 501.585 867.126C470.656 867.152 445.629 871.611 445.629 877.108C445.629 879.968 452.409 882.548 463.271 884.368C456.673 884.997 452.425 885.982 452.425 887.09C452.425 888.991 464.943 890.532 480.385 890.532C495.827 890.532 508.345 888.991 508.345 887.09C508.344 887.067 508.342 887.045 508.338 887.023C536.339 886.453 558.086 882.231 558.086 877.108Z" fill="#F2F2F2"/>
<path opacity="0.1" d="M515.709 683.687C514.962 683.687 514.225 683.696 513.496 683.713C525.375 683.986 534.672 686.428 534.672 689.401C534.672 692.375 525.375 694.817 513.496 695.089C514.225 695.106 514.963 695.114 515.709 695.115C528.625 695.115 539.096 692.557 539.096 689.401C539.096 686.246 528.625 683.687 515.709 683.687Z" fill="black"/>
<path opacity="0.1" d="M497.57 687.116C498.316 687.116 499.054 687.124 499.782 687.139C487.904 687.384 478.607 689.582 478.607 692.258C478.607 694.934 487.904 697.132 499.782 697.377C499.054 697.392 498.316 697.4 497.57 697.401C484.653 697.401 474.182 695.098 474.182 692.258C474.182 689.418 484.653 687.116 497.57 687.116Z" fill="black"/>
<path d="M482.2 875.676C482.2 875.676 484.714 860.121 502.314 865.306C519.914 870.491 522.429 875.676 522.429 875.676H482.2Z" fill="#3F3D56"/>
<path d="M484.854 848.251C489.104 860.243 498.124 865.391 498.124 865.391C498.124 865.391 500.253 851.096 496.003 839.104C491.753 827.112 482.733 821.965 482.733 821.965C482.733 821.965 480.604 836.259 484.854 848.251Z" fill="#3F3D56"/>
<path d="M488.166 844.011C495.74 851.018 498.657 864.935 498.657 864.935C498.657 864.935 489.294 867.492 481.72 860.486C474.146 853.479 471.229 839.562 471.229 839.562C471.229 839.562 480.592 837.005 488.166 844.011Z" fill="#1565C0"/>
<path d="M600.143 657.242C600.143 752.229 563.098 785.395 517.4 785.395C471.702 785.395 434.657 752.229 434.657 657.242C434.657 562.255 517.4 441.416 517.4 441.416C517.4 441.416 600.143 562.255 600.143 657.242Z" fill="#F2F2F2"/>
<path d="M514.597 771.034L515.446 691.498L550.771 593.099L515.579 679.02L515.96 643.257L540.307 572.068L516.061 633.794L516.748 569.473L542.818 512.796L516.855 559.358L517.284 441.416L514.59 597.55L514.811 591.109L488.305 529.336L514.386 603.474L511.916 675.309L511.843 673.402L481.286 608.395L511.75 680.138L511.441 689.122L511.386 689.257L511.411 689.995L505.145 872.247H513.517L514.522 778.11L544.911 706.543L514.597 771.034Z" fill="#3F3D56"/>
<path d="M655.914 837.11C655.914 833.609 645.841 830.529 630.601 828.747C642.675 828.375 651.624 827.021 651.624 825.407C651.624 823.506 639.208 821.965 623.892 821.965C608.576 821.965 596.159 823.506 596.159 825.407C596.159 826.034 597.512 826.622 599.873 827.128C569.196 827.155 544.371 831.613 544.371 837.11C544.371 839.971 551.097 842.55 561.871 844.37C555.326 845 551.113 845.985 551.113 847.092C551.113 848.993 563.529 850.534 578.846 850.534C594.162 850.534 606.578 848.993 606.578 847.092C606.577 847.07 606.575 847.048 606.571 847.026C634.344 846.455 655.914 842.234 655.914 837.11Z" fill="#F2F2F2"/>
<path opacity="0.1" d="M508.637 818.794C509.984 818.794 511.314 818.807 512.628 818.833C491.2 819.233 474.429 822.824 474.429 827.197C474.429 831.57 491.2 835.161 512.628 835.561C511.314 835.586 509.984 835.599 508.637 835.6C485.336 835.6 466.447 831.838 466.447 827.197C466.447 822.556 485.336 818.794 508.637 818.794Z" fill="black"/>
<path d="M235.343 880.715C235.343 877.214 225.269 874.134 210.029 872.352C222.104 871.98 231.053 870.626 231.053 869.012C231.053 867.111 218.636 865.57 203.32 865.57C188.004 865.57 175.588 867.111 175.588 869.012C175.588 869.639 176.94 870.227 179.302 870.733C148.624 870.759 123.8 875.218 123.8 880.715C123.8 883.576 130.526 886.155 141.299 887.975C134.755 888.605 130.542 889.59 130.542 890.697C130.542 892.598 142.958 894.139 158.274 894.139C173.59 894.139 186.007 892.598 186.007 890.697C186.006 890.675 186.004 890.652 186 890.631C213.773 890.06 235.343 885.839 235.343 880.715Z" fill="#F2F2F2"/>
<path opacity="0.1" d="M156.33 875.289C157.077 875.289 157.814 875.298 158.543 875.314C146.664 875.572 137.368 877.88 137.368 880.69C137.368 883.5 146.664 885.807 158.543 886.065C157.814 886.081 157.077 886.089 156.33 886.089C143.414 886.089 132.943 883.672 132.943 880.69C132.943 877.707 143.414 875.289 156.33 875.289Z" fill="black"/>
<path d="M304.971 820.667C304.971 815.427 286.641 810.818 258.909 808.151C280.88 807.594 297.165 805.567 297.165 803.152C297.165 800.306 274.571 798 246.701 798C218.83 798 196.237 800.306 196.237 803.152C196.237 804.09 198.698 804.97 202.995 805.728C147.172 805.767 102 812.44 102 820.667C102 824.949 114.239 828.809 133.843 831.533C121.934 832.475 114.268 833.949 114.268 835.607C114.268 838.452 136.861 840.758 164.732 840.758C192.602 840.758 215.196 838.452 215.196 835.607C215.194 835.573 215.19 835.54 215.183 835.507C265.721 834.653 304.971 828.335 304.971 820.667Z" fill="#F2F2F2"/>
<path d="M1663.76 680.95L1666.77 767.478C1666.77 767.478 1658.94 849.371 1660.75 851.688C1662.55 854.006 1667.37 858.642 1663.76 864.05C1660.14 869.458 1646.89 873.32 1646.28 870.23C1645.68 867.14 1644.48 779.067 1644.48 779.067L1640.26 674.769L1663.76 680.95Z" fill="#2F2E41"/>
<path opacity="0.2" d="M1663.76 680.95L1666.77 767.478C1666.77 767.478 1658.94 849.371 1660.75 851.688C1662.55 854.006 1667.37 858.642 1663.76 864.05C1660.14 869.458 1646.89 873.32 1646.28 870.23C1645.68 867.14 1644.48 779.067 1644.48 779.067L1640.26 674.769L1663.76 680.95Z" fill="black"/>
<path d="M1660.61 862.187C1660.61 862.187 1675.98 876.84 1677.82 876.84C1679.66 876.84 1696.26 883.781 1684.58 886.866C1672.9 889.951 1644.63 888.408 1644.01 883.781C1643.4 879.154 1645.86 865.111 1645.86 865.111L1660.61 862.187Z" fill="#2F2E41"/>
<path opacity="0.2" d="M1660.61 862.187C1660.61 862.187 1675.98 876.84 1677.82 876.84C1679.66 876.84 1696.26 883.781 1684.58 886.866C1672.9 889.951 1644.63 888.408 1644.01 883.781C1643.4 879.154 1645.86 865.111 1645.86 865.111L1660.61 862.187Z" fill="black"/>
<path d="M1699.05 615.344C1699.05 615.344 1706 618.432 1706 620.748C1706 623.064 1712.33 652.4 1713.59 653.944C1714.86 655.488 1715.49 662.435 1715.49 662.435C1715.49 662.435 1721.81 680.191 1720.55 680.191C1719.28 680.191 1708.53 677.103 1707.9 680.191C1707.27 683.279 1702.21 660.891 1702.21 660.891L1691.46 634.644L1699.05 615.344Z" fill="#1565C0"/>
<path d="M1719.8 683.575C1719.8 683.575 1717.92 700.577 1712.89 702.122C1707.87 703.668 1712.89 680.483 1712.89 680.483L1719.8 683.575Z" fill="#FFB8B8"/>
<path opacity="0.1" d="M187.934 812.649C189.28 812.649 190.611 812.662 191.925 812.688C170.496 813.089 153.725 816.68 153.725 821.052C153.725 825.425 170.496 829.016 191.925 829.417C190.61 829.441 189.28 829.454 187.934 829.455C164.632 829.455 145.743 825.693 145.743 821.052C145.743 816.412 164.632 812.649 187.934 812.649Z" fill="black"/>
<path d="M1704.26 606.055C1704.26 606.055 1700.55 615.939 1698.7 621.261C1696.85 626.583 1679.57 607.576 1679.57 607.576C1679.57 607.576 1688.83 599.213 1688.83 595.412C1688.83 591.61 1704.26 606.055 1704.26 606.055Z" fill="#FFB8B8"/>
<path d="M1735.34 889.614C1746.37 889.614 1757.16 885.458 1766.33 877.673C1775.5 869.887 1782.65 858.822 1786.87 845.875C1791.09 832.928 1792.19 818.682 1790.04 804.938C1787.89 791.194 1782.58 778.569 1774.78 768.66C1766.98 758.751 1757.04 752.003 1746.22 749.269C1735.4 746.535 1724.19 747.939 1714 753.301C1703.81 758.664 1695.1 767.745 1688.97 779.397C1682.84 791.049 1679.57 804.747 1679.57 818.761C1679.59 837.546 1685.47 855.555 1695.92 868.838C1706.38 882.121 1720.56 889.592 1735.34 889.614ZM1735.34 749.465C1746.13 749.465 1756.68 753.529 1765.65 761.143C1774.62 768.758 1781.61 779.58 1785.74 792.242C1789.86 804.905 1790.95 818.838 1788.84 832.28C1786.74 845.722 1781.54 858.069 1773.91 867.76C1766.28 877.451 1756.56 884.051 1745.98 886.725C1735.4 889.399 1724.44 888.026 1714.47 882.782C1704.5 877.537 1695.98 868.655 1689.99 857.259C1684 845.864 1680.8 832.466 1680.8 818.761C1680.81 800.389 1686.57 782.775 1696.79 769.784C1707.02 756.793 1720.88 749.486 1735.34 749.465V749.465Z" fill="#2F2E41"/>
<path d="M1561.63 889.614C1572.84 889.614 1583.8 885.458 1593.12 877.673C1602.44 869.887 1609.71 858.822 1614 845.875C1618.29 832.928 1619.41 818.682 1617.23 804.938C1615.04 791.194 1609.64 778.569 1601.71 768.66C1593.78 758.751 1583.68 752.003 1572.69 749.269C1561.69 746.535 1550.29 747.939 1539.94 753.301C1529.58 758.664 1520.72 767.745 1514.5 779.397C1508.27 791.049 1504.94 804.747 1504.94 818.761C1504.96 837.546 1510.94 855.555 1521.56 868.838C1532.19 882.121 1546.6 889.592 1561.63 889.614ZM1561.63 749.465C1572.59 749.465 1583.31 753.529 1592.43 761.143C1601.55 768.758 1608.65 779.58 1612.85 792.242C1617.04 804.905 1618.14 818.838 1616 832.28C1613.86 845.722 1608.58 858.069 1600.83 867.76C1593.08 877.451 1583.2 884.051 1572.44 886.725C1561.69 889.399 1550.54 888.026 1540.41 882.782C1530.28 877.537 1521.62 868.655 1515.53 857.259C1509.44 845.864 1506.19 832.466 1506.19 818.761C1506.21 800.389 1512.05 782.775 1522.44 769.784C1532.84 756.793 1546.93 749.486 1561.63 749.465V749.465Z" fill="#2F2E41"/>
<path d="M1735.8 823.332C1733.53 823.332 1731.69 821.285 1731.69 818.761C1731.69 816.236 1733.53 814.19 1735.8 814.19C1738.07 814.19 1739.91 816.236 1739.91 818.761C1739.91 821.285 1738.07 823.332 1735.8 823.332Z" fill="#2F2E41"/>
<path d="M1560.71 823.332C1558.69 823.332 1557.06 821.285 1557.06 818.761C1557.06 816.236 1558.69 814.19 1560.71 814.19C1562.73 814.19 1564.37 816.236 1564.37 818.761C1564.37 821.285 1562.73 823.332 1560.71 823.332Z" fill="#2F2E41"/>
<path d="M1729.63 811.904L1730.77 811.293L1698.31 715.91L1606.24 718.262L1606.06 718.612L1560.71 807.29L1561.76 808.129L1606.93 719.801L1697.49 717.486L1729.63 811.904Z" fill="#2F2E41"/>
<path d="M1632.94 829.046L1609.19 726.195L1608 726.609L1631.24 827.248L1569.1 817.523L1568.94 819.03L1632.94 829.046Z" fill="#2F2E41"/>
<path d="M1700.67 740.114L1701.56 741.199L1637.71 822.559L1636.82 821.474L1700.67 740.114Z" fill="#2F2E41"/>
<path d="M1603.15 700.159L1606.86 717.208L1605.67 717.615L1601.95 700.566L1603.15 700.159Z" fill="#2F2E41"/>
<path d="M1695.88 712.481L1697.18 712.126L1694.04 695.473H1705.17V685.054H1703.84V693.871H1692.37L1695.88 712.481Z" fill="#2F2E41"/>
<path d="M1625.63 684.825C1625.63 684.825 1625.63 679.827 1617.53 682.326C1609.42 684.825 1584.49 691.49 1582.62 690.657C1580.75 689.823 1581.37 695.655 1589.48 698.154C1597.58 700.653 1606.93 694.822 1608.8 693.156C1610.67 691.49 1625.63 684.825 1625.63 684.825Z" fill="#2F2E41"/>
<path d="M1647.57 823.332H1664.03V831.331H1647.57V823.332Z" fill="#1565C0"/>
<path d="M1632.03 843.902C1634.56 843.902 1637.03 842.997 1639.14 841.302C1641.24 839.607 1642.89 837.197 1643.85 834.378C1644.82 831.559 1645.08 828.457 1644.58 825.465C1644.09 822.472 1642.87 819.723 1641.08 817.565C1639.29 815.408 1637.01 813.938 1634.53 813.343C1632.04 812.748 1629.47 813.053 1627.13 814.221C1624.79 815.389 1622.79 817.366 1621.39 819.903C1619.98 822.44 1619.23 825.423 1619.23 828.474C1619.23 832.565 1620.58 836.486 1622.98 839.378C1625.38 842.271 1628.63 843.897 1632.03 843.902V843.902ZM1632.03 814.59C1634.31 814.59 1636.53 815.404 1638.43 816.93C1640.32 818.455 1641.8 820.624 1642.67 823.161C1643.54 825.698 1643.77 828.49 1643.33 831.183C1642.88 833.877 1641.79 836.351 1640.17 838.293C1638.56 840.234 1636.51 841.557 1634.28 842.093C1632.04 842.628 1629.72 842.353 1627.62 841.302C1625.51 840.251 1623.72 838.472 1622.45 836.188C1621.18 833.905 1620.51 831.221 1620.51 828.474C1620.51 824.793 1621.73 821.264 1623.89 818.661C1626.05 816.058 1628.97 814.594 1632.03 814.59Z" fill="#2F2E41"/>
<path d="M1698.31 613.059C1689.98 613.059 1683.23 604.872 1683.23 594.774C1683.23 584.676 1689.98 576.49 1698.31 576.49C1706.65 576.49 1713.4 584.676 1713.4 594.774C1713.4 604.872 1706.65 613.059 1698.31 613.059Z" fill="#FFB8B8"/>
<path d="M1650.94 681.936C1650.94 681.936 1693.9 712.697 1693.28 722.694C1692.66 732.691 1660.28 787.29 1660.28 787.29C1660.28 787.29 1657.79 803.44 1655.3 803.44C1652.81 803.44 1637.24 810.361 1636.62 805.747C1635.99 801.133 1641.6 795.75 1640.98 792.674C1640.35 789.597 1668.37 733.46 1668.37 733.46C1668.37 733.46 1608.41 705.775 1620.96 681.936C1633.5 658.097 1650.94 681.936 1650.94 681.936Z" fill="#2F2E41"/>
<path d="M1650.39 801.619C1650.39 801.619 1657.8 803.901 1659.04 806.945C1660.28 809.988 1681.9 819.879 1675.72 822.161C1669.54 824.444 1633.71 825.205 1632.47 823.683C1631.24 822.161 1632.47 804.501 1637.42 804.581C1642.36 804.662 1647.92 806.945 1650.39 801.619Z" fill="#2F2E41"/>
<path d="M1698.69 624.077L1684.79 603.064C1684.79 603.064 1669.03 597.333 1662.23 608.795C1655.43 620.257 1636.89 648.53 1630.7 654.643C1624.52 660.756 1615.87 684.444 1618.96 685.208C1622.05 685.972 1639.36 676.803 1646.16 682.916C1652.96 689.029 1665.94 689.793 1666.55 686.737C1667.17 683.68 1704.26 632.483 1704.26 625.606C1704.26 618.729 1700.31 617.253 1700.31 617.253L1698.69 624.077Z" fill="#1565C0"/>
<path d="M1691.15 685.258L1709.85 676.993C1710.82 676.565 1711.88 677.199 1712.22 678.409C1712.56 679.62 1712.06 680.948 1711.09 681.376L1692.39 689.641C1691.42 690.069 1690.35 689.435 1690.01 688.224C1689.67 687.014 1690.18 685.686 1691.15 685.258Z" fill="#2F2E41"/>
<path d="M1733.48 675.912C1733.48 675.912 1754.4 683.567 1752.61 691.988C1750.81 700.409 1731.69 682.036 1731.69 682.036L1733.48 675.912Z" fill="#FFB8B8"/>
<path d="M1677.37 607.622C1677.37 607.622 1685.98 616.952 1687.82 627.837C1689.66 638.722 1698.88 658.16 1698.88 658.16L1736.37 673.71C1736.37 673.71 1738.83 688.483 1735.14 688.483C1731.45 688.483 1690.28 677.598 1689.05 675.265C1687.82 672.933 1661.39 628.615 1661.39 628.615C1661.39 628.615 1658.94 604.512 1677.37 607.622Z" fill="#1565C0"/>
<path d="M1708.06 573.496C1708.42 573.894 1708.86 574.171 1709.34 574.303C1709.57 574.357 1709.82 574.29 1710.01 574.117C1710.21 573.944 1710.35 573.68 1710.39 573.382C1710.66 574.337 1711.17 575.156 1711.84 575.723C1712.55 576.188 1713.65 575.798 1713.75 574.799C1713.85 575.557 1714.12 576.266 1714.52 576.848C1714.73 577.126 1715.02 577.289 1715.32 577.302C1715.62 577.315 1715.92 577.176 1716.14 576.916C1715.83 579.054 1716.02 581.254 1715.93 583.424C1715.83 585.595 1715.37 587.896 1714.07 589.323C1712.17 591.405 1709.31 590.891 1706.82 590.497C1706.44 590.397 1706.05 590.424 1705.68 590.575C1704.74 591.077 1704.79 592.717 1704.77 593.997C1704.7 596.244 1703.99 598.383 1702.78 600.036C1701.57 601.689 1699.93 602.749 1698.16 603.026C1697.17 603.219 1696.16 602.908 1695.35 602.162C1694.64 601.405 1694.28 600.171 1693.47 599.602C1692.14 598.677 1690.54 600.026 1689.58 601.491C1688.61 602.956 1687.66 604.758 1686.16 605.026C1684.18 605.381 1682.67 602.839 1681.93 600.499C1680.91 597.218 1680.42 593.714 1680.49 590.192C1680.56 586.67 1681.19 583.202 1682.35 579.991C1686.48 568.64 1700.61 566.844 1708.06 573.496Z" fill="#2F2E41"/>
<path d="M1425.3 886.185L1426.4 885.473C1412.03 850.868 1419.72 805.928 1428.7 774.321C1434.79 753.077 1442.57 732.64 1451.91 713.31L1450.86 712.481C1441.47 731.909 1433.65 752.451 1427.52 773.803C1418.46 805.699 1410.72 851.088 1425.3 886.185Z" fill="#2F2E41"/>
<path d="M1415.36 712.684L1423.4 767.702L1422.18 767.981L1414.14 712.962L1415.36 712.684Z" fill="#2F2E41"/>
<path d="M1468.84 759.558L1469.75 760.615L1428.22 816.405L1427.31 815.348L1468.84 759.558Z" fill="#2F2E41"/>
<path d="M1394.17 820.842L1415.24 857.269L1414.24 858.177L1393.17 821.75L1394.17 820.842Z" fill="#2F2E41"/>
<path d="M1411.23 697.625C1407.95 697.625 1405.29 694.299 1405.29 690.197C1405.29 686.095 1407.95 682.769 1411.23 682.769C1414.51 682.769 1417.17 686.095 1417.17 690.197C1417.17 694.299 1414.51 697.625 1411.23 697.625Z" fill="#1565C0"/>
<path d="M1479.8 757.05C1476.52 757.05 1473.86 753.724 1473.86 749.622C1473.86 745.52 1476.52 742.194 1479.8 742.194C1483.08 742.194 1485.74 745.52 1485.74 749.622C1485.74 753.724 1483.08 757.05 1479.8 757.05Z" fill="#3F3D56"/>
<path d="M1451.46 765.05C1448.17 765.05 1445.51 761.724 1445.51 757.622C1445.51 753.519 1448.17 750.193 1451.46 750.193C1454.74 750.193 1457.4 753.519 1457.4 757.622C1457.4 761.724 1454.74 765.05 1451.46 765.05Z" fill="#3F3D56"/>
<path d="M1463.8 795.905C1460.27 795.905 1457.4 792.323 1457.4 787.905C1457.4 783.487 1460.27 779.906 1463.8 779.906C1467.33 779.906 1470.2 783.487 1470.2 787.905C1470.2 792.323 1467.33 795.905 1463.8 795.905Z" fill="#1565C0"/>
<path d="M1439.54 819.19C1436.26 819.19 1433.6 815.864 1433.6 811.761C1433.6 807.659 1436.26 804.333 1439.54 804.333C1442.83 804.333 1445.49 807.659 1445.49 811.761C1445.49 815.864 1442.83 819.19 1439.54 819.19Z" fill="#3F3D56"/>
<path d="M1407.11 823.332C1403.58 823.332 1400.71 820.006 1400.71 815.904C1400.71 811.801 1403.58 808.476 1407.11 808.476C1410.65 808.476 1413.51 811.801 1413.51 815.904C1413.51 820.006 1410.65 823.332 1407.11 823.332Z" fill="#3F3D56"/>
<path d="M1393.4 848.473C1389.87 848.473 1387 844.892 1387 840.474C1387 836.056 1389.87 832.474 1393.4 832.474C1396.93 832.474 1399.8 836.056 1399.8 840.474C1399.8 844.892 1396.93 848.473 1393.4 848.473Z" fill="#3F3D56"/>
<path d="M1458.31 706.767C1454.78 706.767 1451.91 703.442 1451.91 699.339C1451.91 695.237 1454.78 691.911 1458.31 691.911C1461.85 691.911 1464.71 695.237 1464.71 699.339C1464.71 703.442 1461.85 706.767 1458.31 706.767Z" fill="#3F3D56"/>
<path d="M1288.26 899.899H1867V901.041H1288.26V899.899Z" fill="#2F2E41"/>
<path d="M741.234 415H701.718L706.602 386.806H643.554L652.656 335.524L715.482 259.6H757.662L693.504 341.962L691.284 354.838H715.038L720.588 324.424H757.218L751.668 354.838H773.646L768.096 386.806H746.118L741.234 415ZM870.454 253.606C905.382 253.606 922.846 269.294 922.846 300.67C922.846 306.442 922.254 312.806 921.07 319.762L915.742 350.842C911.894 373.486 903.902 390.358 891.766 401.458C879.778 412.558 863.054 418.108 841.594 418.108C820.282 418.108 805.556 412.632 797.416 401.68C791.94 394.132 789.202 383.92 789.202 371.044C789.202 364.828 789.794 358.094 790.978 350.842L796.306 319.762C804.002 275.658 828.718 253.606 870.454 253.606ZM829.606 364.162C829.606 377.186 835.6 383.698 847.588 383.698C854.988 383.698 860.982 381.256 865.57 376.372C870.306 371.488 873.784 362.682 876.004 349.954L881.11 320.65C881.998 315.766 882.442 311.548 882.442 307.996C882.442 294.676 876.522 288.016 864.682 288.016C849.586 288.312 840.114 299.19 836.266 320.65L830.938 349.954C830.05 355.43 829.606 360.166 829.606 364.162ZM1026.11 415H986.589L991.473 386.806H928.425L937.527 335.524L1000.35 259.6H1042.53L978.375 341.962L976.155 354.838H999.909L1005.46 324.424H1042.09L1036.54 354.838H1058.52L1052.97 386.806H1030.99L1026.11 415Z" fill="#535461"/>
<path d="M754.234 416H714.718L719.602 387.806H656.554L665.656 336.524L728.482 260.6H770.662L706.504 342.962L704.284 355.838H728.038L733.588 325.424H770.218L764.668 355.838H786.646L781.096 387.806H759.118L754.234 416ZM883.454 254.606C918.382 254.606 935.846 270.294 935.846 301.67C935.846 307.442 935.254 313.806 934.07 320.762L928.742 351.842C924.894 374.486 916.902 391.358 904.766 402.458C892.778 413.558 876.054 419.108 854.594 419.108C833.282 419.108 818.556 413.632 810.416 402.68C804.94 395.132 802.202 384.92 802.202 372.044C802.202 365.828 802.794 359.094 803.978 351.842L809.306 320.762C817.002 276.658 841.718 254.606 883.454 254.606ZM842.606 365.162C842.606 378.186 848.6 384.698 860.588 384.698C867.988 384.698 873.982 382.256 878.57 377.372C883.306 372.488 886.784 363.682 889.004 350.954L894.11 321.65C894.998 316.766 895.442 312.548 895.442 308.996C895.442 295.676 889.522 289.016 877.682 289.016C862.586 289.312 853.114 300.19 849.266 321.65L843.938 350.954C843.05 356.43 842.606 361.166 842.606 365.162ZM1039.11 416H999.589L1004.47 387.806H941.425L950.527 336.524L1013.35 260.6H1055.53L991.375 342.962L989.155 355.838H1012.91L1018.46 325.424H1055.09L1049.54 355.838H1071.52L1065.97 387.806H1043.99L1039.11 416Z" fill="#1565C0"/>
<g filter="url(#filter0_d)">
<path d="M704.784 521.08C704.784 528.856 702.72 534.616 698.592 538.36C694.464 542.008 688.368 543.832 680.304 543.832H666.768V583H654.24V482.2H680.016C688.176 482.2 694.32 484.024 698.448 487.672C702.672 491.224 704.784 496.888 704.784 504.664V521.08ZM692.256 503.368C692.256 499.72 691.392 497.08 689.664 495.448C688.032 493.816 685.392 493 681.744 493H666.768V533.032H681.744C685.392 533.032 688.032 532.216 689.664 530.584C691.392 528.856 692.256 526.168 692.256 522.52V503.368ZM762.553 583L757.081 557.512H729.001L723.385 583H710.569L734.905 482.2H751.465L775.369 583H762.553ZM742.969 491.704L731.305 546.712H754.777L742.969 491.704ZM812.876 583C804.524 583 798.092 580.984 793.58 576.952C789.164 572.824 786.956 566.68 786.956 558.52V506.68C786.956 498.52 789.164 492.424 793.58 488.392C798.092 484.264 804.524 482.2 812.876 482.2H832.316V493.144H811.436C807.884 493.144 805.004 494.2 802.796 496.312C800.588 498.424 799.484 500.968 799.484 503.944V561.256C799.484 564.232 800.588 566.776 802.796 568.888C805.004 571 807.884 572.056 811.436 572.056H824.684V540.808H812.588V530.008H836.636V583H812.876ZM858.99 583V482.2H906.222V492.712H871.518V525.688H902.622V536.2H871.518V572.488H906.222V583H858.99ZM998.155 583L976.123 492.856V583H964.459V482.2H984.907L1007.08 572.344V482.2H1018.75V583H998.155ZM1098.5 558.52C1098.5 566.68 1096.25 572.824 1091.74 576.952C1087.32 580.984 1080.94 583 1072.58 583H1067.69C1059.34 583 1052.9 580.984 1048.39 576.952C1043.98 572.824 1041.77 566.68 1041.77 558.52V506.68C1041.77 498.52 1043.98 492.424 1048.39 488.392C1052.9 484.264 1059.34 482.2 1067.69 482.2H1072.58C1080.94 482.2 1087.32 484.264 1091.74 488.392C1096.25 492.424 1098.5 498.52 1098.5 506.68V558.52ZM1085.98 503.944C1085.98 500.968 1084.87 498.424 1082.66 496.312C1080.46 494.2 1077.58 493.144 1074.02 493.144H1066.25C1062.7 493.144 1059.82 494.2 1057.61 496.312C1055.4 498.424 1054.3 500.968 1054.3 503.944V561.256C1054.3 564.232 1055.4 566.776 1057.61 568.888C1059.82 571 1062.7 572.056 1066.25 572.056H1074.02C1077.58 572.056 1080.46 571 1082.66 568.888C1084.87 566.776 1085.98 564.232 1085.98 561.256V503.944ZM1143.35 493.144V583H1130.82V493.144H1108.64V482.2H1165.52V493.144H1143.35ZM1229.83 492.712V527.128H1260.93V537.64H1229.83V583H1217.3V482.2H1264.53V492.712H1229.83ZM1338.55 558.52C1338.55 566.68 1336.3 572.824 1331.78 576.952C1327.37 580.984 1320.98 583 1312.63 583H1307.74C1299.38 583 1292.95 580.984 1288.44 576.952C1284.02 572.824 1281.82 566.68 1281.82 558.52V506.68C1281.82 498.52 1284.02 492.424 1288.44 488.392C1292.95 484.264 1299.38 482.2 1307.74 482.2H1312.63C1320.98 482.2 1327.37 484.264 1331.78 488.392C1336.3 492.424 1338.55 498.52 1338.55 506.68V558.52ZM1326.02 503.944C1326.02 500.968 1324.92 498.424 1322.71 496.312C1320.5 494.2 1317.62 493.144 1314.07 493.144H1306.3C1302.74 493.144 1299.86 494.2 1297.66 496.312C1295.45 498.424 1294.34 500.968 1294.34 503.944V561.256C1294.34 564.232 1295.45 566.776 1297.66 568.888C1299.86 571 1302.74 572.056 1306.3 572.056H1314.07C1317.62 572.056 1320.5 571 1322.71 568.888C1324.92 566.776 1326.02 564.232 1326.02 561.256V503.944ZM1414.86 558.52C1414.86 566.68 1412.61 572.824 1408.1 576.952C1403.68 580.984 1397.3 583 1388.94 583H1386.78C1378.43 583 1372 580.984 1367.49 576.952C1363.07 572.824 1360.86 566.68 1360.86 558.52V482.2H1373.39V561.256C1373.39 564.232 1374.5 566.776 1376.7 568.888C1378.91 571 1381.79 572.056 1385.34 572.056H1390.38C1393.94 572.056 1396.82 571 1399.02 568.888C1401.23 566.776 1402.34 564.232 1402.34 561.256V482.2H1414.86V558.52ZM1472.34 583L1450.31 492.856V583H1438.65V482.2H1459.09L1481.27 572.344V482.2H1492.93V583H1472.34ZM1570.1 560.248C1570.1 568.504 1568.18 574.36 1564.34 577.816C1560.6 581.272 1554.36 583 1545.62 583H1517.4V482.2H1543.89C1552.53 482.2 1559.06 483.976 1563.48 487.528C1567.89 490.984 1570.1 496.696 1570.1 504.664V560.248ZM1557.57 503.368C1557.57 500.2 1556.61 497.704 1554.69 495.88C1552.77 493.96 1550.23 493 1547.06 493H1529.92V572.2H1546.92C1550.56 572.2 1553.25 571.384 1554.98 569.752C1556.71 568.024 1557.57 565.336 1557.57 561.688V503.368Z" fill="#1565C0"/>
</g>
<defs>
<filter id="filter0_d" x="643.24" y="482.2" width="926.86" height="107.8" filterUnits="userSpaceOnUse" color-interpolation-filters="sRGB">
<feFlood flood-opacity="0" result="BackgroundImageFix"/>
<feColorMatrix in="SourceAlpha" type="matrix" values="0 0 0 0 0 0 0 0 0 0 0 0 0 0 0 0 0 0 127 0"/>
<feOffset dx="-8" dy="4"/>
<feGaussianBlur stdDeviation="1.5"/>
<feColorMatrix type="matrix" values="0 0 0 0 0 0 0 0 0 0 0 0 0 0 0 0 0 0 0.25 0"/>
<feBlend mode="normal" in2="BackgroundImageFix" result="effect1_dropShadow"/>
<feBlend mode="normal" in="SourceGraphic" in2="effect1_dropShadow" result="shape"/>
</filter>
</defs>
</svg>
